<?xml version="1.0" encoding="iso-8859-1"?>
<!-- Generator: Adobe Illustrator 18.1.1, SVG Export Plug-In . SVG Version: 6.00 Build 0)  -->
<svg version="1.1" id="Capa_1" xmlns="http://www.w3.org/2000/svg" xmlns:xlink="http://www.w3.org/1999/xlink" x="0px" y="0px"
	 viewBox="0 0 221.517 221.517" style="enable-background:new 0 0 221.517 221.517;" xml:space="preserve">
<g>
	<g>
		<path style="fill:#010002;" d="M202.059,64.774h-34.391v-7.859C167.667,25.526,142.142,0,110.758,0
			C79.37,0,53.844,25.526,53.844,56.914v7.859H19.458c-5.657,0-10.236,4.585-10.236,10.236v136.27
			c0,5.651,4.58,10.236,10.236,10.236h182.6c5.657,0,10.236-4.585,10.236-10.236V75.01
			C212.295,69.359,207.715,64.774,202.059,64.774z M74.317,56.914c0-20.097,16.35-36.442,36.442-36.442s36.436,16.344,36.436,36.442
			v7.859H74.317V56.914z M191.828,85.246v37.258H29.689V85.246H191.828z M29.689,201.044v-58.073h162.139v58.073H29.689z"/>
	</g>
</g>
<g>
</g>
<g>
</g>
<g>
</g>
<g>
</g>
<g>
</g>
<g>
</g>
<g>
</g>
<g>
</g>
<g>
</g>
<g>
</g>
<g>
</g>
<g>
</g>
<g>
</g>
<g>
</g>
<g>
</g>
</svg>
